<svg width="382" height="78" viewBox="0 0 382 78" fill="none" xmlns="http://www.w3.org/2000/svg">
<path d="M53.473 8.166C55.728 8.166 57.556 6.33797 57.556 4.08299C57.556 1.82801 55.728 0 53.473 0C51.218 0 49.39 1.82801 49.39 4.08299C49.39 6.33797 51.218 8.166 53.473 8.166Z" fill="#2764AE"/>
<path d="M34.616 8.166C36.871 8.166 38.699 6.33797 38.699 4.08299C38.699 1.82801 36.871 0 34.616 0C32.361 0 30.533 1.82801 30.533 4.08299C30.533 6.33797 32.361 8.166 34.616 8.166Z" fill="#2764AE"/>
<path d="M43.818 37.717C46.073 37.717 47.901 35.889 47.901 33.634C47.901 31.379 46.073 29.551 43.818 29.551C41.563 29.551 39.735 31.379 39.735 33.634C39.735 35.889 41.563 37.717 43.818 37.717Z" fill="#2764AE"/>
<path d="M4.08301 8.166C6.33799 8.166 8.166 6.33797 8.166 4.08299C8.166 1.82801 6.33799 0 4.08301 0C1.82803 0 0 1.82801 0 4.08299C0 6.33797 1.82803 8.166 4.08301 8.166Z" fill="#2764AE"/>
<path d="M43.818 58.713C46.073 58.713 47.901 56.885 47.901 54.63C47.901 52.375 46.073 50.547 43.818 50.547C41.563 50.547 39.735 52.375 39.735 54.63C39.735 56.885 41.563 58.713 43.818 58.713Z" fill="#2764AE"/>
<path d="M81.18 8.166C83.435 8.166 85.263 6.33797 85.263 4.08299C85.263 1.82801 83.435 0 81.18 0C78.925 0 77.097 1.82801 77.097 4.08299C77.097 6.33797 78.925 8.166 81.18 8.166Z" fill="#2764AE"/>
<path d="M57.556 77.703C59.811 77.703 61.639 75.875 61.639 73.62C61.639 71.365 59.811 69.537 57.556 69.537C55.301 69.537 53.473 71.365 53.473 73.62C53.473 75.875 55.301 77.703 57.556 77.703Z" fill="#2764AE"/>
<path d="M29.234 77.703C31.489 77.703 33.317 75.875 33.317 73.62C33.317 71.365 31.489 69.537 29.234 69.537C26.979 69.537 25.151 71.365 25.151 73.62C25.151 75.875 26.979 77.703 29.234 77.703Z" fill="#2764AE"/>
<path d="M25.43 23.443C27.685 23.443 29.513 21.615 29.513 19.36C29.513 17.105 27.685 15.277 25.43 15.277C23.175 15.277 21.347 17.105 21.347 19.36C21.347 21.615 23.175 23.443 25.43 23.443Z" fill="#2764AE"/>
<path d="M60.362 23.443C62.617 23.443 64.445 21.615 64.445 19.36C64.445 17.105 62.617 15.277 60.362 15.277C58.107 15.277 56.279 17.105 56.279 19.36C56.279 21.615 58.107 23.443 60.362 23.443Z" fill="#2764AE"/>
<path d="M17.264 45.053C19.519 45.053 21.347 43.225 21.347 40.97C21.347 38.715 19.519 36.887 17.264 36.887C15.009 36.887 13.181 38.715 13.181 40.97C13.181 43.225 15.009 45.053 17.264 45.053Z" fill="#2764AE"/>
<path d="M69.172 45.053C71.427 45.053 73.255 43.225 73.255 40.97C73.255 38.715 71.427 36.887 69.172 36.887C66.917 36.887 65.089 38.715 65.089 40.97C65.089 43.225 66.917 45.053 69.172 45.053Z" fill="#2764AE"/>
<path d="M83.026 3.409C82.808 3.1 82.808 3.09999 82.808 3.09999C82.405 2.99799 80.799 2.916 79.24 2.916H56.823C55.263 2.916 53.935 2.916 53.872 2.918C53.872 2.918 53.872 2.91799 53.812 2.92599C53.749 2.93399 53.686 2.947 53.624 2.965C53.409 3.031 53.224 3.154 53.084 3.315C53.02 3.389 52.962 3.473 52.917 3.565C52.888 3.624 52.888 3.62399 52.888 3.62399C52.865 3.69199 52.455 4.962 51.977 6.446L44.748 28.882C44.269 30.366 43.525 30.355 43.093 28.857L36.637 6.48399C36.204 4.98599 35.715 3.57 35.55 3.338C35.385 3.108 33.454 2.918 31.895 2.918H6.91701C5.35701 2.918 3.75099 2.99999 3.34599 3.10399C3.34599 3.10399 3.34601 3.10399 3.12801 3.41499C2.90901 3.72599 2.909 3.726 2.909 3.726C2.951 4.142 3.41901 5.68099 3.94901 7.14799L15.138 38.082C15.668 39.547 16.034 40.924 15.952 41.141C15.871 41.358 15.965 41.618 16.161 41.719C16.357 41.819 16.952 43.102 17.482 44.569L26.955 70.755C27.485 72.222 27.683 73.73 27.393 74.105C27.103 74.482 27.399 74.791 28.049 74.791C28.7 74.791 30.508 74.791 32.068 74.791H54.692C56.252 74.791 57.536 74.791 57.546 74.791C57.546 74.791 57.546 74.791 57.555 74.791C57.557 74.791 57.557 74.791 57.557 74.791C57.559 74.791 58.073 74.791 58.699 74.791C59.326 74.791 59.618 74.486 59.349 74.113C59.079 73.742 59.283 72.234 59.801 70.763L69.084 44.433C69.603 42.964 70.032 41.757 70.039 41.753C70.039 41.753 70.039 41.753 70.044 41.747C70.252 41.513 70.252 41.513 70.252 41.513C70.294 41.179 70.752 39.702 71.271 38.232L82.231 7.14799C82.75 5.677 83.205 4.136 83.244 3.722C83.244 3.718 83.244 3.718 83.026 3.409ZM69.944 34.63C69.421 36.099 68.528 36.11 67.962 34.659L63.265 22.61C62.699 21.157 63.258 19.208 64.509 18.278L77.574 8.56099C78.825 7.63099 79.42 8.07099 78.896 9.53999L69.944 34.63ZM57.523 7.88899C56.957 6.43799 57.768 5.248 59.328 5.248H75.279C76.839 5.248 77.09 6.008 75.838 6.937L63.621 15.999C62.369 16.927 60.881 16.499 60.314 15.046L57.523 7.88899ZM52.832 11.397C53.311 9.91299 53.905 8.28199 54.154 7.77199C54.402 7.26399 55.067 8.03598 55.631 9.49098L66.112 36.524C66.675 37.977 65.911 38.811 64.414 38.378L48.592 33.802C47.095 33.368 46.26 31.798 46.738 30.316L52.832 11.397ZM41.911 33.175C42.344 34.673 42.963 36.275 43.287 36.734C43.287 36.734 43.287 36.734 43.8 36.742C44.292 36.742 44.292 36.742 44.292 36.742C44.643 36.299 44.98 35.777 45.041 35.584C45.103 35.393 46.379 35.59 47.876 36.023L63.972 40.679C65.469 41.113 65.562 42.054 64.178 42.771L46.831 51.755C45.447 52.472 43.725 51.929 43.004 50.546L28.076 21.913C27.355 20.53 27.423 18.308 28.226 16.972L32.853 9.27901C33.657 7.94301 34.667 8.07401 35.1 9.57201L41.911 33.175ZM25.381 16.743C25.314 16.614 25.172 16.739 25.067 17.018C24.962 17.297 23.838 16.786 22.569 15.877L10.022 6.89799C8.754 5.99 8.993 5.248 10.552 5.248H29.719C31.279 5.248 31.897 6.34199 31.093 7.67799L26.963 14.545C26.159 15.882 25.448 16.87 25.381 16.743ZM39.776 49.399C40.497 50.782 39.952 51.329 38.566 50.616L21.245 41.706C19.858 40.991 19.176 39.216 19.726 37.757L24.598 24.861C25.149 23.404 26.19 23.341 26.91 24.724L39.776 49.399ZM7.41901 9.882C6.88901 8.415 7.49199 7.95798 8.75999 8.86598L21.715 18.136C22.984 19.044 23.569 20.98 23.019 22.439L18.372 34.738C17.821 36.197 16.936 36.191 16.406 34.724L7.41901 9.882ZM20.533 46.132C20.003 44.667 20.704 44.05 22.09 44.765L39.523 53.732C40.909 54.445 41.266 56.041 40.317 57.277L31.335 68.972C30.386 70.208 29.175 70.021 28.645 68.554L20.533 46.132ZM34.436 72.454C32.876 72.454 32.378 71.442 33.328 70.206L42.064 58.829C43.013 57.593 44.539 57.614 45.452 58.878L53.612 70.157C54.525 71.419 53.998 72.454 52.438 72.454H34.436ZM47.218 57.341C46.305 56.077 46.69 54.456 48.073 53.739L64.021 45.479C65.405 44.762 66.109 45.375 65.585 46.844L57.963 68.207C57.44 69.676 56.263 69.844 55.35 68.58L47.218 57.341Z" fill="#2764AE"/>
<path d="M53.473 8.166C55.728 8.166 57.556 6.33797 57.556 4.08299C57.556 1.82801 55.728 0 53.473 0C51.218 0 49.39 1.82801 49.39 4.08299C49.39 6.33797 51.218 8.166 53.473 8.166Z" fill="white"/>
<path d="M34.616 8.166C36.871 8.166 38.699 6.33797 38.699 4.08299C38.699 1.82801 36.871 0 34.616 0C32.361 0 30.533 1.82801 30.533 4.08299C30.533 6.33797 32.361 8.166 34.616 8.166Z" fill="white"/>
<path d="M43.818 37.717C46.073 37.717 47.901 35.889 47.901 33.634C47.901 31.379 46.073 29.551 43.818 29.551C41.563 29.551 39.735 31.379 39.735 33.634C39.735 35.889 41.563 37.717 43.818 37.717Z" fill="white"/>
<path d="M4.08301 8.166C6.33799 8.166 8.166 6.33797 8.166 4.08299C8.166 1.82801 6.33799 0 4.08301 0C1.82803 0 0 1.82801 0 4.08299C0 6.33797 1.82803 8.166 4.08301 8.166Z" fill="white"/>
<path d="M43.818 58.713C46.073 58.713 47.901 56.885 47.901 54.63C47.901 52.375 46.073 50.547 43.818 50.547C41.563 50.547 39.735 52.375 39.735 54.63C39.735 56.885 41.563 58.713 43.818 58.713Z" fill="white"/>
<path d="M81.18 8.166C83.435 8.166 85.263 6.33797 85.263 4.08299C85.263 1.82801 83.435 0 81.18 0C78.925 0 77.097 1.82801 77.097 4.08299C77.097 6.33797 78.925 8.166 81.18 8.166Z" fill="white"/>
<path d="M57.556 77.703C59.811 77.703 61.639 75.875 61.639 73.62C61.639 71.365 59.811 69.537 57.556 69.537C55.301 69.537 53.473 71.365 53.473 73.62C53.473 75.875 55.301 77.703 57.556 77.703Z" fill="white"/>
<path d="M29.234 77.703C31.489 77.703 33.317 75.875 33.317 73.62C33.317 71.365 31.489 69.537 29.234 69.537C26.979 69.537 25.151 71.365 25.151 73.62C25.151 75.875 26.979 77.703 29.234 77.703Z" fill="white"/>
<path d="M25.43 23.443C27.685 23.443 29.513 21.615 29.513 19.36C29.513 17.105 27.685 15.277 25.43 15.277C23.175 15.277 21.347 17.105 21.347 19.36C21.347 21.615 23.175 23.443 25.43 23.443Z" fill="white"/>
<path d="M60.362 23.443C62.617 23.443 64.445 21.615 64.445 19.36C64.445 17.105 62.617 15.277 60.362 15.277C58.107 15.277 56.279 17.105 56.279 19.36C56.279 21.615 58.107 23.443 60.362 23.443Z" fill="white"/>
<path d="M17.264 45.053C19.519 45.053 21.347 43.225 21.347 40.97C21.347 38.715 19.519 36.887 17.264 36.887C15.009 36.887 13.181 38.715 13.181 40.97C13.181 43.225 15.009 45.053 17.264 45.053Z" fill="white"/>
<path d="M69.172 45.053C71.427 45.053 73.255 43.225 73.255 40.97C73.255 38.715 71.427 36.887 69.172 36.887C66.917 36.887 65.089 38.715 65.089 40.97C65.089 43.225 66.917 45.053 69.172 45.053Z" fill="white"/>
<path d="M83.026 3.409C82.808 3.1 82.808 3.09999 82.808 3.09999C82.405 2.99799 80.799 2.916 79.24 2.916H56.823C55.263 2.916 53.935 2.916 53.872 2.918C53.872 2.918 53.872 2.91799 53.812 2.92599C53.749 2.93399 53.686 2.947 53.624 2.965C53.409 3.031 53.224 3.154 53.084 3.315C53.02 3.389 52.962 3.473 52.917 3.565C52.888 3.624 52.888 3.62399 52.888 3.62399C52.865 3.69199 52.455 4.962 51.977 6.446L44.748 28.882C44.269 30.366 43.525 30.355 43.093 28.857L36.637 6.48399C36.204 4.98599 35.715 3.57 35.55 3.338C35.385 3.108 33.454 2.918 31.895 2.918H6.91701C5.35701 2.918 3.75099 2.99999 3.34599 3.10399C3.34599 3.10399 3.34601 3.10399 3.12801 3.41499C2.90901 3.72599 2.909 3.726 2.909 3.726C2.951 4.142 3.41901 5.68099 3.94901 7.14799L15.138 38.082C15.668 39.547 16.034 40.924 15.952 41.141C15.871 41.358 15.965 41.618 16.161 41.719C16.357 41.819 16.952 43.102 17.482 44.569L26.955 70.755C27.485 72.222 27.683 73.73 27.393 74.105C27.103 74.482 27.399 74.791 28.049 74.791C28.7 74.791 30.508 74.791 32.068 74.791H54.692C56.252 74.791 57.536 74.791 57.546 74.791C57.546 74.791 57.546 74.791 57.555 74.791C57.557 74.791 57.557 74.791 57.557 74.791C57.559 74.791 58.073 74.791 58.699 74.791C59.326 74.791 59.618 74.486 59.349 74.113C59.079 73.742 59.283 72.234 59.801 70.763L69.084 44.433C69.603 42.964 70.032 41.757 70.039 41.753C70.039 41.753 70.039 41.753 70.044 41.747C70.252 41.513 70.252 41.513 70.252 41.513C70.294 41.179 70.752 39.702 71.271 38.232L82.231 7.14799C82.75 5.677 83.205 4.136 83.244 3.722C83.244 3.718 83.244 3.718 83.026 3.409ZM69.944 34.63C69.421 36.099 68.528 36.11 67.962 34.659L63.265 22.61C62.699 21.157 63.258 19.208 64.509 18.278L77.574 8.56099C78.825 7.63099 79.42 8.07099 78.896 9.53999L69.944 34.63ZM57.523 7.88899C56.957 6.43799 57.768 5.248 59.328 5.248H75.279C76.839 5.248 77.09 6.008 75.838 6.937L63.621 15.999C62.369 16.927 60.881 16.499 60.314 15.046L57.523 7.88899ZM52.832 11.397C53.311 9.91299 53.905 8.28199 54.154 7.77199C54.402 7.26399 55.067 8.03598 55.631 9.49098L66.112 36.524C66.675 37.977 65.911 38.811 64.414 38.378L48.592 33.802C47.095 33.368 46.26 31.798 46.738 30.316L52.832 11.397ZM41.911 33.175C42.344 34.673 42.963 36.275 43.287 36.734C43.287 36.734 43.287 36.734 43.8 36.742C44.292 36.742 44.292 36.742 44.292 36.742C44.643 36.299 44.98 35.777 45.041 35.584C45.103 35.393 46.379 35.59 47.876 36.023L63.972 40.679C65.469 41.113 65.562 42.054 64.178 42.771L46.831 51.755C45.447 52.472 43.725 51.929 43.004 50.546L28.076 21.913C27.355 20.53 27.423 18.308 28.226 16.972L32.853 9.27901C33.657 7.94301 34.667 8.07401 35.1 9.57201L41.911 33.175ZM25.381 16.743C25.314 16.614 25.172 16.739 25.067 17.018C24.962 17.297 23.838 16.786 22.569 15.877L10.022 6.89799C8.754 5.99 8.993 5.248 10.552 5.248H29.719C31.279 5.248 31.897 6.34199 31.093 7.67799L26.963 14.545C26.159 15.882 25.448 16.87 25.381 16.743ZM39.776 49.399C40.497 50.782 39.952 51.329 38.566 50.616L21.245 41.706C19.858 40.991 19.176 39.216 19.726 37.757L24.598 24.861C25.149 23.404 26.19 23.341 26.91 24.724L39.776 49.399ZM7.41901 9.882C6.88901 8.415 7.49199 7.95798 8.75999 8.86598L21.715 18.136C22.984 19.044 23.569 20.98 23.019 22.439L18.372 34.738C17.821 36.197 16.936 36.191 16.406 34.724L7.41901 9.882ZM20.533 46.132C20.003 44.667 20.704 44.05 22.09 44.765L39.523 53.732C40.909 54.445 41.266 56.041 40.317 57.277L31.335 68.972C30.386 70.208 29.175 70.021 28.645 68.554L20.533 46.132ZM34.436 72.454C32.876 72.454 32.378 71.442 33.328 70.206L42.064 58.829C43.013 57.593 44.539 57.614 45.452 58.878L53.612 70.157C54.525 71.419 53.998 72.454 52.438 72.454H34.436ZM47.218 57.341C46.305 56.077 46.69 54.456 48.073 53.739L64.021 45.479C65.405 44.762 66.109 45.375 65.585 46.844L57.963 68.207C57.44 69.676 56.263 69.844 55.35 68.58L47.218 57.341Z" fill="white"/>
<path d="M130.505 66.865H118.115C117.033 66.865 116.382 66.362 116.161 65.353L100.821 15.425C100.575 14.467 100.882 13.987 101.743 13.987H111.994C113.1 13.987 113.764 14.466 113.985 15.425L124.309 49.645L134.671 15.425C134.892 14.467 135.543 13.987 136.625 13.987H146.913C147.38 13.987 147.693 14.122 147.853 14.393C148.012 14.664 147.994 15.008 147.797 15.425L132.457 65.353C132.239 66.362 131.586 66.865 130.505 66.865Z" fill="white"/>
<path d="M166.089 57.278C168.842 57.278 171.534 56.675 174.165 55.471C174.46 55.323 174.73 55.249 174.977 55.249C175.295 55.249 175.677 55.471 176.12 55.912L180.434 61.96C180.679 62.255 180.766 62.581 180.692 62.938C180.619 63.294 180.41 63.571 180.065 63.767C175.763 66.325 170.969 67.602 165.684 67.602C163.079 67.602 160.571 67.08 158.162 66.036C155.753 64.991 153.669 63.59 151.912 61.832C150.154 60.075 148.753 57.985 147.708 55.563C146.663 53.141 146.142 50.616 146.142 47.985C146.142 44.617 146.91 41.446 148.447 38.472C149.983 35.497 152.195 33.07 155.084 31.189C157.973 29.308 161.187 28.368 164.727 28.368C168.661 28.368 172.078 29.376 174.979 31.392C177.879 33.408 180.042 36.069 181.468 39.375C182.894 42.682 183.607 46.387 183.607 50.493C183.607 51.501 183.103 52.005 182.095 52.005H158.016C158.557 53.505 159.54 54.759 160.966 55.767C162.392 56.775 164.098 57.278 166.089 57.278ZM158.014 43.302H171.584C171.092 41.606 170.269 40.266 169.113 39.283C167.957 38.3 166.495 37.808 164.724 37.808C163.028 37.808 161.596 38.324 160.428 39.357C159.262 40.389 158.456 41.704 158.014 43.302Z" fill="white"/>
<path d="M190.685 29.106H200.199C201.133 29.106 201.6 29.585 201.6 30.544V34.637H201.71C202.472 32.99 203.689 31.533 205.36 30.267C207.031 29.001 208.876 28.368 210.891 28.368C213.448 28.368 215.413 28.786 216.791 29.622C217.159 29.843 217.362 30.144 217.399 30.525C217.435 30.906 217.38 31.318 217.233 31.76L214.688 40.573C214.467 41.04 214.111 41.274 213.619 41.274C213.324 41.274 213.078 41.225 212.882 41.127C211.751 40.709 210.645 40.5 209.564 40.5C207.252 40.5 205.347 41.317 203.848 42.952C202.348 44.587 201.599 46.867 201.599 49.792V65.427C201.599 66.386 201.131 66.865 200.198 66.865H190.684C189.725 66.865 189.246 66.386 189.246 65.427V30.544C189.246 29.585 189.726 29.106 190.685 29.106Z" fill="white"/>
<path d="M242.456 66.865H223.283C222.324 66.865 221.845 66.386 221.845 65.427V15.426C221.845 14.468 222.324 13.988 223.283 13.988H242.457C246.169 13.988 249.672 14.676 252.967 16.053C256.261 17.43 259.081 19.298 261.43 21.658C263.777 24.018 265.633 26.827 266.997 30.084C268.361 33.342 269.044 36.79 269.044 40.427C269.044 45.197 267.888 49.603 265.578 53.646C263.266 57.691 260.07 60.905 255.99 63.289C251.909 65.673 247.398 66.865 242.456 66.865ZM234.381 26.229V54.623H242.014C246.021 54.623 249.438 53.29 252.265 50.622C255.092 47.955 256.506 44.581 256.506 40.5C256.506 36.296 255.098 32.867 252.283 30.212C249.469 27.557 246.045 26.23 242.013 26.23H234.381V26.229Z" fill="white"/>
<path d="M286.632 66.865H276.898C275.939 66.865 275.46 66.386 275.46 65.427V15.426C275.46 14.468 275.939 13.988 276.898 13.988H286.632C287.541 13.988 287.996 14.467 287.996 15.426V65.427C287.996 66.386 287.541 66.865 286.632 66.865Z" fill="white"/>
<path d="M336.523 19.297L331.398 27.151C330.979 27.643 330.525 27.889 330.034 27.889C329.689 27.889 329.357 27.791 329.038 27.594C326.997 26.193 324.477 25.492 321.478 25.492C317.348 25.492 313.888 26.955 311.098 29.88C308.308 32.806 306.912 36.321 306.912 40.426C306.912 44.581 308.301 48.114 311.079 51.028C313.857 53.94 317.323 55.397 321.477 55.397C324.476 55.397 327.094 54.635 329.331 53.11C329.602 52.915 329.908 52.815 330.253 52.815C330.72 52.815 331.102 53.074 331.397 53.59L336.522 61.333C337.087 62.268 336.964 62.98 336.154 63.472C331.679 66.225 326.788 67.602 321.477 67.602C317.618 67.602 314.004 66.907 310.636 65.519C307.268 64.13 304.398 62.231 302.026 59.822C299.654 57.413 297.786 54.53 296.422 51.175C295.058 47.82 294.375 44.237 294.375 40.426C294.375 36.665 295.058 33.107 296.422 29.751C297.786 26.396 299.654 23.514 302.026 21.104C304.398 18.695 307.268 16.784 310.636 15.37C314.004 13.957 317.617 13.25 321.477 13.25C326.861 13.25 331.679 14.577 335.932 17.232C336.744 17.65 336.941 18.338 336.523 19.297Z" fill="white"/>
<path d="M366.281 66.865H356.547C355.637 66.865 355.182 66.386 355.182 65.427V26.23H342.423C341.464 26.23 340.985 25.775 340.985 24.866V15.426C340.985 14.468 341.464 13.988 342.423 13.988H380.477C381.436 13.988 381.915 14.467 381.915 15.426V24.866C381.915 25.776 381.436 26.23 380.477 26.23H367.719V65.427C367.719 66.386 367.24 66.865 366.281 66.865Z" fill="white"/>
</svg>
