<?xml version="1.0" standalone="no"?>
<!DOCTYPE svg PUBLIC "-//W3C//DTD SVG 20010904//EN"
 "http://www.w3.org/TR/2001/REC-SVG-20010904/DTD/svg10.dtd">
<svg version="1.0" xmlns="http://www.w3.org/2000/svg"
 width="700.000000pt" height="700.000000pt" viewBox="0 0 700.000000 700.000000"
 preserveAspectRatio="xMidYMid meet">
<metadata>
Created by potrace 1.11, written by Peter Selinger 2001-2013
</metadata>
<g transform="translate(0.000000,700.000000) scale(0.100000,-0.100000)"
fill="#000000" stroke="none">
<path d="M701 6985 c-99 -22 -159 -44 -241 -87 -205 -109 -355 -293 -427 -523
l-28 -90 0 -2785 0 -2785 28 -90 c91 -290 302 -501 592 -592 l90 -28 2785 0
2785 0 90 28 c290 91 501 302 592 592 l28 90 0 2785 0 2785 -28 90 c-91 290
-302 501 -592 592 l-90 28 -2760 2 c-2325 1 -2770 -1 -2824 -12z m261 -871
c60 -20 121 -73 148 -129 l22 -45 758 0 758 0 22 45 c45 94 152 152 260 142
144 -13 244 -122 243 -267 0 -78 -18 -124 -72 -183 l-41 -44 210 -728 c116
-400 213 -731 216 -736 3 -5 23 -9 44 -9 l39 0 90 278 c350 1082 382 1187 371
1190 -29 10 -85 71 -106 117 -31 66 -32 161 -3 225 42 95 142 160 244 160 99
0 208 -70 244 -157 l13 -33 667 0 667 0 12 34 c17 47 76 104 136 132 100 46
217 24 297 -56 136 -136 88 -371 -91 -437 l-53 -20 -343 -974 c-189 -536 -344
-978 -344 -982 0 -5 18 -29 39 -54 97 -109 93 -270 -9 -371 -42 -43 -77 -60
-151 -75 l-62 -12 -295 -837 -295 -837 33 -38 c123 -140 88 -347 -72 -427
-133 -66 -312 -2 -367 132 l-13 32 -683 0 -683 0 -22 -43 c-50 -97 -131 -147
-240 -147 -192 1 -318 183 -250 362 11 28 35 68 54 87 l35 36 -289 800 c-160
440 -297 819 -305 841 -15 40 -18 42 -68 48 -75 10 -126 36 -174 89 -98 106
-92 274 13 373 l33 32 -345 953 c-189 525 -349 966 -355 982 -8 18 -19 27 -33
27 -51 0 -129 33 -171 71 -62 57 -89 118 -89 199 1 188 178 315 356 254z"/>
<path d="M1285 5783 c-11 -2 -30 -6 -41 -8 -29 -6 -38 -33 -20 -61 12 -17 830
-611 893 -647 6 -4 35 4 65 18 39 18 70 25 119 25 l65 0 161 268 c88 147 163
276 167 287 4 14 -4 37 -23 66 -24 38 -35 47 -67 52 -42 7 -1286 7 -1319 0z"/>
<path d="M4525 5781 c-74 -19 -112 -66 -101 -130 3 -20 50 -148 103 -286 l98
-249 43 -8 c23 -4 65 -19 92 -34 l50 -27 38 26 c90 59 829 611 844 631 10 11
18 29 18 38 0 41 -20 43 -600 45 -305 1 -568 -2 -585 -6z"/>
<path d="M4202 5588 c-19 -23 -62 -151 -282 -834 l-212 -660 31 -46 c17 -25
37 -69 44 -98 8 -29 20 -56 28 -60 39 -22 1098 -320 1135 -320 49 0 74 25 74
73 0 15 -77 227 -171 470 -94 243 -173 447 -175 452 -3 6 -28 11 -57 11 -237
6 -348 294 -178 459 l38 37 -84 216 c-108 277 -122 306 -155 310 -13 2 -30 -3
-36 -10z"/>
<path d="M5807 5585 c-15 -7 -227 -163 -472 -345 l-445 -332 0 -61 c-1 -72
-16 -120 -54 -169 l-26 -36 161 -413 c88 -228 168 -427 177 -442 22 -37 58
-46 83 -20 26 25 639 1741 639 1787 0 22 -6 36 -16 40 -19 7 -14 8 -47 -9z"/>
<path d="M2821 5553 c-24 -25 -301 -476 -317 -516 -3 -9 4 -31 17 -49 54 -75
53 -204 -1 -291 -17 -28 -30 -55 -28 -62 2 -6 221 -431 488 -943 l485 -931 51
-1 c61 0 125 -21 170 -55 l33 -26 588 305 c323 168 598 314 611 325 27 24 28
62 2 86 -17 15 -1120 344 -1158 345 -7 0 -29 -16 -49 -36 -71 -72 -172 -97
-269 -69 -106 31 -194 146 -194 255 0 45 28 124 59 165 17 22 31 45 31 51 0
12 -393 1376 -409 1415 -10 29 -46 59 -69 59 -7 0 -26 -12 -41 -27z"/>
<path d="M1087 5564 c-4 -4 -7 -18 -7 -31 0 -21 578 -1633 620 -1730 29 -66
72 -78 104 -28 9 13 85 209 171 435 l156 411 -32 37 c-55 62 -72 114 -67 201
l4 76 -440 315 c-422 301 -484 339 -509 314z"/>
<path d="M2270 4525 c-14 -15 -86 -192 -186 -457 -90 -238 -164 -437 -164
-441 0 -5 16 -27 34 -49 42 -48 66 -114 66 -179 l0 -47 83 -45 c45 -24 309
-161 587 -303 376 -193 514 -259 540 -259 74 0 71 6 -403 915 -239 459 -446
847 -460 863 -31 34 -66 35 -97 2z"/>
<path d="M1972 3158 c-7 -7 -12 -28 -12 -47 0 -29 488 -1403 552 -1554 24 -55
41 -67 95 -67 31 0 45 7 70 32 17 18 164 207 327 419 l296 387 -21 48 c-12 26
-24 75 -27 109 l-4 61 -187 96 c-681 353 -1029 528 -1051 528 -15 0 -31 -5
-38 -12z"/>
<path d="M4703 3018 c-109 -57 -359 -186 -556 -288 l-357 -185 0 -54 c0 -36
-8 -72 -26 -112 l-26 -58 285 -393 c186 -257 295 -399 316 -412 27 -15 36 -16
61 -6 16 7 36 23 44 35 17 25 510 1395 532 1479 12 43 12 53 -1 73 -26 39 -61
29 -272 -79z"/>
<path d="M3402 2206 c-54 -57 -595 -770 -605 -796 -6 -15 -7 -39 -3 -54 14
-56 16 -56 699 -56 430 0 634 3 656 11 55 19 67 78 28 140 -12 20 -143 204
-292 408 l-270 372 -56 -6 c-31 -4 -72 -2 -92 3 -32 9 -37 7 -65 -22z"/>
</g>
</svg>
